<svg width="40" height="40" viewBox="0 0 40 40" fill="none" xmlns="http://www.w3.org/2000/svg">
  <rect x="0" y="0" width="40" height="40" rx="8" fill="url(#bg)"/>
  <defs>
    <linearGradient id="bg" x1="0" y1="0" x2="40" y2="40" gradientUnits="userSpaceOnUse">
      <stop offset="0" stop-color="#E77E41"/>
      <stop offset="1" stop-color="#CE443C"/>
    </linearGradient>
  </defs>
  <g transform="translate(6.908,13.417)">
    <path
        d="M 0 11.769 L 0 9.035 L 1.345 9.035 L 1.635 11.048 A 5.01 5.01 0 0 0 2.874 11.593 A 4.946 4.946 0 0 0 3.912 11.773 A 5.869 5.869 0 0 0 4.315 11.786 A 4.798 4.798 0 0 0 4.979 11.743 Q 5.325 11.694 5.617 11.592 A 2.645 2.645 0 0 0 5.805 11.518 A 2.465 2.465 0 0 0 6.315 11.221 A 1.942 1.942 0 0 0 6.741 10.775 A 1.861 1.861 0 0 0 7.058 9.862 A 2.328 2.328 0 0 0 7.066 9.668 A 2.091 2.091 0 0 0 6.987 9.082 A 1.778 1.778 0 0 0 6.785 8.631 A 1.797 1.797 0 0 0 6.455 8.247 Q 6.287 8.097 6.068 7.963 A 3.626 3.626 0 0 0 5.858 7.844 A 4.726 4.726 0 0 0 5.358 7.622 Q 5.093 7.52 4.778 7.427 A 11.594 11.594 0 0 0 4.096 7.251 A 10.518 10.518 0 0 1 3.029 6.945 Q 2.504 6.763 2.066 6.536 A 5.961 5.961 0 0 1 1.868 6.429 A 4.512 4.512 0 0 1 1.122 5.909 A 3.388 3.388 0 0 1 0.488 5.181 A 2.991 2.991 0 0 1 0.025 3.736 A 3.676 3.676 0 0 1 0.018 3.498 A 3.216 3.216 0 0 1 0.28 2.193 A 3.112 3.112 0 0 1 0.549 1.705 Q 1.081 0.914 2.03 0.457 Q 2.979 0 4.245 0 A 7.553 7.553 0 0 1 5.437 0.09 A 5.625 5.625 0 0 1 6.623 0.409 A 7.148 7.148 0 0 1 7.456 0.799 Q 7.948 1.071 8.323 1.398 L 8.323 3.955 L 6.979 3.955 L 6.688 2.127 A 2.929 2.929 0 0 0 6.214 1.821 A 4.044 4.044 0 0 0 5.704 1.6 A 3.268 3.268 0 0 0 5.157 1.459 Q 4.748 1.389 4.245 1.389 A 3.567 3.567 0 0 0 3.571 1.45 A 2.717 2.717 0 0 0 2.944 1.648 Q 2.382 1.907 2.065 2.373 A 1.828 1.828 0 0 0 1.764 3.203 A 2.331 2.331 0 0 0 1.749 3.472 A 1.809 1.809 0 0 0 1.828 4.017 A 1.559 1.559 0 0 0 2.035 4.439 Q 2.32 4.852 2.966 5.164 A 5.939 5.939 0 0 0 3.462 5.373 Q 3.984 5.569 4.693 5.748 A 10.072 10.072 0 0 1 5.954 6.144 Q 6.581 6.39 7.073 6.703 A 4.569 4.569 0 0 1 7.756 7.229 A 3.181 3.181 0 0 1 8.796 9.539 A 3.917 3.917 0 0 1 8.798 9.65 A 3.244 3.244 0 0 1 8.582 10.845 A 3.042 3.042 0 0 1 8.244 11.474 Q 7.69 12.27 6.684 12.718 A 5.007 5.007 0 0 1 5.477 13.074 Q 4.933 13.166 4.315 13.166 A 7.399 7.399 0 0 1 2.065 12.823 A 7.18 7.18 0 0 1 0.193 11.904 A 8.162 8.162 0 0 1 0 11.769 Z"
        id="0" fill="#3C3F41"/>
    <path
        d="M 15.012 12.982 L 10.415 12.982 L 10.415 11.874 L 11.848 11.628 L 11.848 1.547 L 10.415 1.301 L 10.415 0.185 L 11.848 0.185 L 14.159 0.185 L 18.281 9.897 L 18.334 9.897 L 22.324 0.185 L 26.183 0.185 L 26.183 1.301 L 24.75 1.547 L 24.75 11.628 L 26.183 11.874 L 26.183 12.982 L 21.586 12.982 L 21.586 11.874 L 23.098 11.628 L 23.098 7.919 L 23.098 2.549 L 23.054 2.54 L 18.896 12.524 L 17.745 12.524 L 13.447 2.558 L 13.403 2.566 L 13.465 7.919 L 13.465 11.628 L 15.012 11.874 L 15.012 12.982 Z"
        id="1" fill="#3C3F41"/>
  </g>
</svg>
